<svg id="Layer_1" data-name="Layer 1" xmlns="http://www.w3.org/2000/svg" viewBox="0 0 35.08 43.72"><defs><style>.cls-1{fill:#fff;}</style></defs><title>locked</title><path class="cls-1" d="M263.86,390.83H261.5a3,3,0,0,0,0-.29v-5.08a11.77,11.77,0,1,0-23.54,0v5.08a3,3,0,0,0,0,.29h-1.39a3.93,3.93,0,0,0-3.92,3.92v18.72a3.93,3.93,0,0,0,3.92,3.93h27.23a3.93,3.93,0,0,0,3.93-3.93V394.75A3.93,3.93,0,0,0,263.86,390.83ZM244,390.53v-5.08a5.76,5.76,0,1,1,11.52,0v5.08c0,0.1,0,.2,0,0.29H244A3,3,0,0,0,244,390.53Zm20.78,22.94a0.92,0.92,0,0,1-.92.92H236.63a0.92,0.92,0,0,1-.92-0.92V394.75a0.92,0.92,0,0,1,.92-0.92h27.23a0.92,0.92,0,0,1,.92.92v18.72Z" transform="translate(-232.7 -373.68)"/><path class="cls-1" d="M250.24,403.12a2.25,2.25,0,0,0-2.25,2.25v4.33h4.5v-4.33A2.25,2.25,0,0,0,250.24,403.12Z" transform="translate(-232.7 -373.68)"/></svg>