<svg id="Layer_1" data-name="Layer 1" xmlns="http://www.w3.org/2000/svg" viewBox="0 0 49.01 47.63"><defs><style>.cls-1{fill:#fff;}</style></defs><title>person</title><path class="cls-1" d="M238.31,389.56a2,2,0,0,0,1.89,2h0c0.39,5.29,4.56,10.59,9.65,10.59s9.26-5.3,9.65-10.59h0a2,2,0,0,0,1.89-2,2,2,0,0,0-1.12-1.83,12.34,12.34,0,0,0,.59-3.79c0-6.47-4.95-11.72-11-11.72s-11,5.25-11,11.72a12.37,12.37,0,0,0,.59,3.79A2,2,0,0,0,238.31,389.56Z" transform="translate(-225.39 -372.22)"/><path class="cls-1" d="M274.08,414.4a35.16,35.16,0,0,0-15.94-9,1,1,0,0,0-.49-0.13h-0.54a1,1,0,0,0-.49.12,15.76,15.76,0,0,1-13.46,0,1,1,0,0,0-.49-0.12h-0.39l-0.24,0a35.13,35.13,0,0,0-16.35,9.05,1,1,0,0,0-.31.74v3.68a1,1,0,0,0,1,1h46.95a1,1,0,0,0,1-1v-3.68A1,1,0,0,0,274.08,414.4Z" transform="translate(-225.39 -372.22)"/></svg>