<svg xmlns="http://www.w3.org/2000/svg" viewBox="0 0 178.1 155.3"><path fill-rule="evenodd" clip-rule="evenodd" fill="#4D1979" d="M1 0v114.3l88.3 39.9 87.8-39.9V0z"/><path fill="#FFF" d="M89.3 155.3L0 115V0h2v113.7l87.3 39.4 86.8-39.4V0h2v115l-.6.2z"/><g><path fill="#FDFDFE" d="M137.6 77.9c1 0 1.8.8 1.8 1.8s-.8 1.8-1.8 1.8-1.8-.8-1.8-1.8c.1-1 .9-1.8 1.8-1.8zm0 3.9c1.2 0 2.1-.9 2.1-2.1s-.9-2.1-2.1-2.1c-1.2 0-2.1.9-2.1 2.1s.9 2.1 2.1 2.1zm.4-2c.3 0 .6-.2.6-.6 0-.5-.4-.6-.8-.6h-1V81h.3v-1.1h.4l.6 1.1h.4l-.5-1.2zm-.3-.9c.3 0 .5 0 .5.3s-.4.3-.8.3h-.4v-.6h.7z"/><g fill="#FDFDFE"><path d="M67.9 33c-17.5 2.3-31.5 8.5-32.1 8.8l-.3.1-.8.4v18.5l2.1-1 .7-.3c.9-.4 3.4-1.6 7-2.9l.3-.1 1-.3V50c.5-.2 1.1-.4 1.6-.6v21c-1.2.5-2.4 1-3.4 1.5l-.5.1-.9.4V85l2.1-1 .7-.3c5.2-2.5 10.5-4.6 15.9-6.4l.3-.1 1-.3V65.3l-1.9.6-.6.2c-.7.2-1.4.4-2.2.6V46.2c.6-.1 1.1-.3 1.6-.4V51.7l1.8-.4.6-.1c2.2-.5 4.4-.9 6.3-1.3l.4-.1 1.2-.2V32.8l-1.4.2h-.5zM96.2 32.6l-.4-.4H95c-2-.2-4.3-.3-6.7-.3-3.4 0-6 .2-6.6.3h-.8l-.4.4-8 8.3-.4.4V65.3l.4.4 7.6 8 .5.5.7-.1h.2c.3 0 3-.2 6.6-.2 2.4 0 4.5.1 6.4.3h.2l.7.1.5-.5 7.9-8.1.4-.4v-8.4l-1.3-.1-8-.9-1.6-.2V60.5l-2.2 2.2c-1 0-1.9-.1-2.9-.1-1.3 0-2.5 0-3.4.1-.5-.5-1.3-1.3-1.7-1.8V45.8c.2-.3.6-.6.9-1 .6-.6 1.3-1.3 1.7-1.8h4.8l2.8 2.8v4.1l1.3.1 8 .8 1.6.2v-9.7l-.4-.4-7.6-8.3zM143.8 43.4l-.3-.1c-4-2-8.7-3.8-14.1-5.4l-.7-.2-1.8-.5v11.5l1 .3c.6.2 1.3.4 1.9.6v18.5c-.6.5-1.5 1.3-2.1 1.8-1.3-.5-3.6-1.3-4.6-1.7-.6-.9-1.8-3.1-2.3-3.9V47c.9.2 1.7.4 1.8.5l1.8.5V36.4l-1.1-.3-.4-.1c-6.6-1.6-12.2-2.5-14.2-2.8l-.6-.1-1.7-.3v11.5l1.3.2.4.1c.3 0 .7.1 1.4.2V67l.2.3 6 9.9.3.5.6.2.2.1c1 .3 6.1 1.8 11.4 4.4l.3.2.9.4.7-.6 10.1-8.7.5-.4V54.1c.4.2.7.4 1.1.6l.7.4 2.1 1V43.8l-.8-.4z"/></g></g></svg>